<?xml version="1.0" encoding="utf-8"?>
<!-- Generator: Adobe Illustrator 23.0.3, SVG Export Plug-In . SVG Version: 6.00 Build 0)  -->
<svg version="1.2" baseProfile="tiny" id="Layer_1" xmlns="http://www.w3.org/2000/svg" xmlns:xlink="http://www.w3.org/1999/xlink"
	 x="0px" y="0px" viewBox="0 0 470.8 64.1" xml:space="preserve">
<title>Benzinga Logo_pitchdeck</title>
<polygon fill="#185f7d" points="67.7,63.8 112.9,63.8 112.9,51.9 81.4,51.9 81.4,37.3 107.5,37.3 107.5,25.4 81.4,25.4 81.4,11.9 
	113.1,11.9 113.1,0 67.7,0 "/>
<polygon fill="#185f7d" points="167.3,40.2 137.7,0 117.3,0 123.7,8.1 123.7,64.1 137.3,64.1 137.3,22.1 167.9,63.8 181,63.8 181,0 
	167.3,0 "/>
<path fill="#185f7d" d="M47.1,31c6-1.1,11-6.7,11-14.6C58.1,7.9,51.9,0,39.6,0H0l6.2,7.9v56H41c12.3,0,18.7-7.7,18.7-17.3
	C59.4,38.7,54,31.9,47.1,31z M19.8,12h17.1c4.6,0,7.5,2.7,7.5,6.7s-2.9,6.7-7.5,6.7H19.8V12z M37.5,52H19.8V37.3h17.7
	c5.2,0,8.1,3.3,8.1,7.3C45.6,49.2,42.5,51.9,37.5,52L37.5,52z"/>
<path fill="#185f7d" d="M380.8,40.2h7.1v7.5c-3.7,3-8.3,4.7-13.1,4.8c-11.4,0-19.4-8.7-19.4-20.4s8.1-20.4,19.4-20.4
	c5.9,0,11.4,3.1,14.6,8.1l10.8-6C395.6,6.5,387.5,0,374.7,0c-18.1,0-33.1,12.5-33.1,31.9s14.8,31.9,33.1,31.9
	c10,0.2,19.5-4.1,26.1-11.5V28.7h-29.2L380.8,40.2z"/>
<polygon fill="#185f7d" points="319.3,40.2 289.6,0 269.3,0 275.6,8.1 275.6,64.1 289.3,64.1 289.3,22.1 319.9,63.8 332.9,63.8 
	332.9,0 319.3,0 "/>
<path fill="#185f7d" d="M446,0h-26.3l6.3,8.1l-1.1,3.1l-20.4,52.9h15.4l4-10.8h27.5l4,10.8h15.4L446,0z M427.4,41.2l10-27.5l10,27.5
	H427.4z"/>
<rect x="247.7" fill="#185f7d" width="13.7" height="64.1"/>
<polygon fill="#185f7d" points="236.8,11 236.8,0 188.7,0 188.7,11.9 218.9,11.9 188.7,52.9 188.7,63.8 237.3,63.8 237.3,51.9 
	206.4,51.9 "/>
</svg>
