<svg xmlns="http://www.w3.org/2000/svg" viewBox="0 0 551.59 225.07"><defs><style>.cls-1{fill:#000000;}</style></defs><g id="Capa_2" data-name="Capa 2"><g id="Capa_2-2" data-name="Capa 2"><rect class="cls-1" y="0.79" width="59.25" height="90"/><path d="M69.59,1.4h34.65a38.81,38.81,0,0,1,17,3.47,27.61,27.61,0,0,1,11.33,9.79,42.36,42.36,0,0,1,4.8,13,86.88,86.88,0,0,1,1.68,18.07,86.4,86.4,0,0,1-1.71,18,48.61,48.61,0,0,1-4.52,13.11,27.64,27.64,0,0,1-11.21,9.86,37.87,37.87,0,0,1-16.84,3.47H69.59V83.91h6.17V7.67H69.59ZM91.1,84H101q7.69,0,11-2.19,11.91-7.55,11.92-36.45,0-27.93-11.43-35.11a14.21,14.21,0,0,0-5.07-2,37.15,37.15,0,0,0-7.09-.6H91.1Z"/><path d="M141.76,1.4H172V7.67h-7V83.91h7v6.27H141.76V83.91h7.83V7.67h-7.83Z"/><path d="M241.37,76.85Q231.05,92.18,212.16,91.7,191,91.52,182.71,77.52v.06Q176,67.05,176,46.3q0-21.6,7.09-32.12v.06Q191,.18,213.08,0a37.81,37.81,0,0,1,24.63,8.46l1.95,15.64h-7.27a18.24,18.24,0,0,0-4.95-12.72q-4.89-5.12-14.3-5.17-10.51-.12-15.92,10t-5.83,29.87q.42,19.41,5.62,29.48t15.21,10a21.53,21.53,0,0,0,8-1.67,17.83,17.83,0,0,0,6.08-4.29V56.41h-8.68V50h29.09v6.32h-5.38Z"/><path d="M248.24,1.4h30.19V7.67h-7V83.91h7v6.27H248.24V83.91h7.82V7.67h-7.82Z"/><path d="M347.23,1.4l2.32,16.12H343q-1.47-9.85-6.9-9.85H322.78V83.91h6.05v6.27H301.09V83.91h6.36V7.67H294.19q-5.44,0-6.91,9.85h-6.6L283,1.4Z"/><path d="M342.75,90.18V84h6.54q6.48-20.62,13-41.32T375.2,1.4H382L408.63,84H415v6.21H388.52V84H393l-1.89-5.9q-.91-2.86-1.83-5.69l-1.84-5.72q-.92-2.89-1.89-5.93H364c-.65,2-1.28,4-1.87,5.9s-1.18,3.8-1.77,5.69-1.18,3.78-1.77,5.69-1.21,3.89-1.86,6h4.64v6.21ZM383.63,54.4q-2.31-6.94-4.52-13.69T374.65,27q-2.26,7.05-4.34,13.63L366,54.4Z"/><path d="M442.1,83.91h29.21q5.44,0,6.91-9.92h6.6L482.5,90.18H420.59V83.91h6.05V7.67h-6.17V1.4H448V7.67H442.1Z"/><path d="M82.12,117.79h-6.6v-6.27H104v6.27H97.52v74.6q-.12,14.48-5.44,22.76-5.51,8.52-19.25,9.92l-2.69-5.85q12-.42,12-27.07Z"/><path d="M142.74,110.06q34.47,0,34.47,45.82T142.8,201.76q-34.4,0-34.4-45.88T142.74,110.06Zm0,6.33q-18.94,0-18.94,39.49t19,39.55q18.94,0,18.95-39.49T142.74,116.39Z"/><path d="M232.26,111.52h20v6.27H246v45.88q0,37.79-29,37.79-17.22,0-24.62-11.14-6-9.18-6-26.83v-45.7h-6.3v-6.27h27.69v6.27h-6V164q0,15.35,2.38,21.24,3.72,9.85,15.83,9.86,18.33,0,18.33-31.64V117.79h-6.05Z"/><path d="M280.44,194H287v6.27H258.81V194l6.17.06v-76.3h-6.17v-6.27h37.4a36.75,36.75,0,0,1,10.7,1.5,30.94,30.94,0,0,1,8.92,4.28,23.26,23.26,0,0,1,6.69,7.82,21.66,21.66,0,0,1,2.35,10.13,20.48,20.48,0,0,1-1.62,8,25.17,25.17,0,0,1-4.61,7.12,30.74,30.74,0,0,1-6,4.8,25.68,25.68,0,0,1-7,3,69,69,0,0,0,7.89,17A156.2,156.2,0,0,0,327.62,194h6.6v6.27h-19.8a191.69,191.69,0,0,1-13.38-20,182.29,182.29,0,0,1-10.45-21H280.44Zm0-41.19h15.41a9.16,9.16,0,0,0,5-1.55,17.9,17.9,0,0,0,4.55-4.47,28.26,28.26,0,0,0,2.9-5.72,16.84,16.84,0,0,0,1.07-5.78,19.59,19.59,0,0,0-4-12.23,13.23,13.23,0,0,0-10.88-5.36l-14,.06Z"/><path d="M401.86,117.79V200.3h-8.37L353,130.14V194h6v6.27H339.72V194h6.17V117.79h-6.17v-6.27h19.73l35.26,60.36V117.79h-6v-6.27H408v6.27Z"/><path d="M411.52,200.3v-6.21h6.54q6.48-20.62,13-41.31t13-41.26h6.78l26.65,82.57h6.41v6.21H457.29v-6.21h4.52l-1.89-5.9-1.83-5.69c-.61-1.88-1.23-3.79-1.84-5.72l-1.89-5.93H432.73q-1,3-1.87,5.9t-1.77,5.69l-1.77,5.69q-.88,2.87-1.87,6h4.65v6.21Zm40.88-35.78q-2.31-6.93-4.52-13.69t-4.46-13.69q-2.26,7.06-4.34,13.63l-4.34,13.75Z"/><path d="M508.87,194h29.21q5.45,0,6.91-9.91h6.6l-2.33,16.18h-61.9V194h6.05V117.79h-6.17v-6.27H514.8v6.27h-5.93Z"/></g></g></svg>
