<svg xmlns="http://www.w3.org/2000/svg" xmlns:xlink="http://www.w3.org/1999/xlink" version="1.2" baseProfile="tiny" id="Layer_1" x="0px" y="0px" xml:space="preserve" viewBox="72 603.6 936 88.6">
<path fill="#004080" d="M129.3,667.5c0,7.9-2.8,14.2-8.4,18.6c-4.9,4-11.2,6-18.7,6c-3.1,0-6.9-0.7-11.2-2.1  c-4.3-1.4-7.1-2.1-8.4-2.1c-2.1,0-3.4,1.4-3.8,4.2h-2.8L72,664.9h2.8c5.4,15,14.2,22.6,26.4,22.6c3.7,0,7.1-1.1,10.1-3.4  c3.4-2.6,5.1-6.1,5.1-10.5c0-7.1-4.4-13.2-13.1-18.3L91,648.1c-10.2-5.9-15.3-13.1-15.3-21.5c0-6.6,2.1-11.9,6.3-15.9  c4.2-4,9.7-6,16.4-6c3.8,0,7.5,0.7,11.1,2.1s6,2.1,7.4,2.1c1.9,0,3.2-1.4,4.1-4.2h2.7l2.8,27h-3.1c-4.8-14.5-12.8-21.8-24-21.8  c-3.6,0-6.6,1.1-9.1,3.2c-2.5,2.2-3.7,5.1-3.7,8.9c0,3.3,1.5,6.4,4.6,9.4c1.9,1.7,5.3,4.1,10.3,7.2l12.4,7.6  C124.2,652.5,129.3,659.6,129.3,667.5z M173,681.7c-2.9,3.4-5.4,5.8-7.5,7.2c-2.7,1.8-5.8,2.7-9.2,2.7c-6.5,0-9.8-4.5-9.8-13.6  v-40.4h-6.8c-0.3,0-0.6-0.3-0.6-0.9c0-0.6,0.1-1,0.4-1.1c4.1-2.4,9.5-7.9,16.2-16.7l1.7-2.2v16.9H170v4.1h-12.6v36.9  c0,7,1.9,10.5,5.6,10.5c2.5,0,5.3-1.6,8.4-4.7L173,681.7z M217.5,638.4c0,4.1-1.7,6.1-5.1,6.1c-1.8,0-3.4-0.7-4.8-2.2  c-1.4-1.5-2.7-2.2-3.8-2.2c-1.4,0-3.1,1.2-5.1,3.5c-2,2.3-2.9,4.7-2.9,7.2v29.7c0,5.4,3.2,8.1,9.7,8.1v1.8h-30.1v-1.8  c6.4,0,9.6-2.7,9.6-8.1v-32.5c0-4.9-1.7-7.5-5-7.9c-1.4,0-2.9,0.3-4.6,1v-1.9l20.4-7v11.5c5.1-7.7,10.1-11.5,15-11.5  c1.9,0,3.5,0.6,4.8,1.8C216.9,635.1,217.5,636.6,217.5,638.4z M274.8,670.3c-1.6,5.8-5,10.8-10,15c-5.1,4.2-10.4,6.3-16.1,6.3  c-6.7,0-12.4-2.5-17-7.5c-5.1-5.4-7.7-12.7-7.7-21.9c0-8.6,2.4-15.8,7.3-21.4c4.8-5.7,11-8.5,18.6-8.5c6.9,0,12.4,2.2,16.4,6.7  c4.1,4.4,6.1,9.9,6.1,16.4h-39.5c0,7.9,2,14.6,5.9,19.8c4,5.3,8.8,7.9,14.5,7.9c4.1,0,8-1.5,11.9-4.4c3.5-2.6,6-5.7,7.5-9.3  L274.8,670.3z M259.5,651.3c-0.9-9.7-4.9-14.6-12.2-14.6c-8.2,0-13,4.9-14.3,14.6H259.5z M334.6,670.3c-1.6,5.8-5,10.8-10,15  c-5.1,4.2-10.4,6.3-16.1,6.3c-6.7,0-12.4-2.5-17-7.5c-5.1-5.4-7.7-12.7-7.7-21.9c0-8.6,2.4-15.8,7.3-21.4c4.8-5.7,11-8.5,18.6-8.5  c6.9,0,12.4,2.2,16.4,6.7c4.1,4.4,6.1,9.9,6.1,16.4h-39.5c0,7.9,2,14.6,5.9,19.8c4,5.3,8.8,7.9,14.5,7.9c4.1,0,8-1.5,11.9-4.4  c3.5-2.6,6-5.7,7.5-9.3L334.6,670.3z M319.3,651.3c-0.9-9.7-4.9-14.6-12.2-14.6c-8.2,0-13,4.9-14.3,14.6H319.3z M374.4,681.7  c-2.9,3.4-5.4,5.8-7.5,7.2c-2.7,1.8-5.8,2.7-9.2,2.7c-6.5,0-9.8-4.5-9.8-13.6v-40.4h-6.8c-0.3,0-0.6-0.3-0.6-0.9  c0-0.6,0.1-1,0.4-1.1c4.1-2.4,9.5-7.9,16.2-16.7l1.7-2.2v16.9h12.6v4.1h-12.6v36.9c0,7,1.9,10.5,5.6,10.5c2.5,0,5.3-1.6,8.4-4.7  L374.4,681.7z M415.2,690.3h-38v-2.4c8.3,0,12.5-2.8,12.5-8.5v-62.4c0-5.5-4.2-8.2-12.5-8.2v-2.4h38v2.4c-8.3,0-12.5,2.7-12.5,8.2  v62.4c0,5.7,4.2,8.5,12.5,8.5V690.3z M482.4,690.3h-26.9v-1.8c5.4,0,8-2.7,8-8.1v-31.9c0-3.1-0.9-5.5-2.7-7.1  c-1.8-1.6-4.1-2.4-6.8-2.4c-4.7,0-9.4,2.5-14,7.4v34.1c0,5.4,2.7,8.1,8,8.1v1.8H421v-1.8c5.4,0,8-2.7,8-8.1v-34.4  c0-2.7-0.6-4.4-1.7-5.2c-1.1-0.8-3.2-1.1-6.4-0.9v-1.8l18.9-6v10.4c5.9-6.9,12.5-10.4,19.8-10.4c9.8,0,14.7,6.4,14.7,19.3v28.9  c0,5.4,2.7,8.1,8,8.1V690.3z M529.3,675.1c0,5.2-2,9.4-5.9,12.4c-3.6,2.7-7.9,4.1-13,4.1c-1.9,0-4.4-0.5-7.5-1.4  c-3.1-0.9-5.4-1.4-6.9-1.4c-1.9,0-2.8,0.6-2.8,1.8h-1.8v-19.6h2.2c2.4,11.8,7.7,17.7,16.1,17.7c2.9,0,5.3-0.7,7.3-2.1  c2.3-1.6,3.4-3.8,3.4-6.7c0-4-3.2-7.9-9.7-11.6l-8.8-5.1c-7-4.1-10.4-9.2-10.4-15.4c0-4.1,1.6-7.7,4.8-10.8s7.4-4.7,12.6-4.7  c2.6,0,5.1,0.5,7.5,1.4c2.5,0.9,4.2,1.4,5.1,1.4c1,0,1.7-0.5,2-1.6h1.7v17.2h-2c-2.6-10.3-7.2-15.5-14-15.5c-2.6,0-4.8,0.8-6.8,2.3  c-2,1.5-2.9,3.5-2.9,6c0,3.6,3.2,7.4,9.6,11.2l8.9,5.3C525.5,664.5,529.3,669.5,529.3,675.1z M570.1,690.3h-30.2v-1.8  c6.5,0,9.7-2.7,9.7-8.1v-34c0-4.4-1.6-6.6-4.8-6.6c-1.3,0-2.9,0.3-4.8,1V639l20.5-6.8v48.3c0,5.4,3.2,8.1,9.7,8.1V690.3z   M560.4,610.5c0,1.9-0.6,3.4-1.9,4.6c-1.3,1.2-2.8,1.8-4.7,1.8s-3.4-0.6-4.6-1.8c-1.2-1.2-1.8-2.7-1.8-4.6c0-1.9,0.6-3.4,1.8-4.7  c1.2-1.3,2.7-1.9,4.6-1.9s3.4,0.6,4.7,1.9S560.4,608.6,560.4,610.5z M639,684.6c-6.3,1.8-12.8,4.2-19.4,7.2v-9.1  c-4.3,6.1-10.3,9.1-17.9,9.1c-5.2,0-9.9-2.1-14.2-6.2c-5.3-5.3-7.9-12.6-7.9-22.2c0-8.4,2.6-15.7,7.9-21.9  c5.3-6.2,11.7-9.3,19.3-9.3c5.7,0,9.9,1.8,12.8,5.3v-20.4c0-2.9-0.6-4.6-1.9-5.1c-0.4-0.2-2.5-0.3-6.4-0.3v-2.5  c3.9-0.8,10.3-2.7,19.1-5.6v73.5c0,2.6,0.6,4.2,1.9,4.8c0.8,0.4,3,0.6,6.6,0.6V684.6z M619.6,677.4v-27.1c0-4.3-1.2-7.8-3.6-10.3  c-2.4-2.5-5.4-3.8-9-3.8c-5.4,0-9.5,2.5-12.5,7.5c-2.6,4.2-3.8,9.6-3.8,15.9c0,7.5,1.4,13.6,4.3,18.5c3,5.2,7,7.8,12,7.8  c3.3,0,5.9-0.6,7.7-1.8C616.5,682.8,618.1,680.6,619.6,677.4z M697,670.3c-1.6,5.8-5,10.8-10,15c-5.1,4.2-10.4,6.3-16.1,6.3  c-6.7,0-12.4-2.5-17-7.5c-5.1-5.4-7.7-12.7-7.7-21.9c0-8.6,2.4-15.8,7.3-21.4c4.8-5.7,11-8.5,18.6-8.5c6.9,0,12.4,2.2,16.4,6.7  c4.1,4.4,6.1,9.9,6.1,16.4h-39.5c0,7.9,2,14.6,5.9,19.8c4,5.3,8.8,7.9,14.5,7.9c4.1,0,8-1.5,11.9-4.4c3.5-2.6,6-5.7,7.5-9.3  L697,670.3z M681.7,651.3c-0.9-9.7-4.9-14.6-12.2-14.6c-8.2,0-13,4.9-14.3,14.6H681.7z M744.5,638.4c0,4.1-1.7,6.1-5.1,6.1  c-1.8,0-3.4-0.7-4.8-2.2c-1.4-1.5-2.7-2.2-3.8-2.2c-1.4,0-3.1,1.2-5.1,3.5c-2,2.3-2.9,4.7-2.9,7.2v29.7c0,5.4,3.2,8.1,9.7,8.1v1.8  h-30.1v-1.8c6.4,0,9.6-2.7,9.6-8.1v-32.5c0-4.9-1.7-7.5-5-7.9c-1.4,0-2.9,0.3-4.6,1v-1.9l20.4-7v11.5c5.1-7.7,10.1-11.5,15-11.5  c1.9,0,3.5,0.6,4.8,1.8C743.9,635.1,744.5,636.6,744.5,638.4z M770.2,684.6c0,2.1-0.7,3.9-2.1,5.4c-1.4,1.5-3.1,2.2-5.2,2.2  c-2,0-3.7-0.8-5.2-2.3c-1.5-1.5-2.2-3.3-2.2-5.5c0-1.9,0.7-3.5,2-4.9c1.3-1.4,3-2.1,5.2-2.1c2.2,0,4,0.7,5.4,2  C769.5,680.8,770.2,682.5,770.2,684.6z M833.9,671.6c-3.3,6.3-6.5,10.9-9.6,13.8c-4.3,4.1-9.4,6.2-15.3,6.2c-6.7,0-12.4-2.5-17-7.6  c-4.9-5.4-7.4-12.5-7.4-21.3c0-8.8,2.6-16.1,7.8-21.8c5.2-5.7,12.2-8.6,20.9-8.6c5.1,0,9.5,1.3,13.2,3.8c3.7,2.5,5.5,5.4,5.5,8.6  c0,1.5-0.6,2.8-1.7,3.9c-1.1,1.1-2.5,1.6-4.1,1.6c-1.7,0-3.1-0.6-4.1-1.8c-1.1-1.2-1.6-2.5-1.6-3.8c0-2.5-0.9-4.6-2.6-6.3  c-1.7-1.6-3.9-2.5-6.5-2.5c-6.2,0-10.8,2.7-13.9,8.2c-2.2,4.1-3.3,8.7-3.3,13.8c0,6.7,1.9,12.5,5.6,17.4c3.7,4.9,8.3,7.4,13.8,7.4  c7,0,13.1-4.1,18.4-12.2L833.9,671.6z M901,661.8c-0.4,8.7-3.4,15.9-8.9,21.5c-5.5,5.7-12.3,8.4-20.4,8.2  c-7.6-0.2-13.9-3.1-19.1-8.8c-5.1-5.7-7.7-12.7-7.7-21c0-8.5,2.4-15.5,7.3-20.9c5.1-5.7,12-8.6,20.8-8.6c8.7,0,15.6,2.7,20.8,8.2  C899,646,901.4,653.1,901,661.8z M889.3,666.9c0-8.4-1.3-15.4-4-20.8c-3.2-6.7-8.1-10-14.7-10c-4.6,0-8.1,2-10.6,6.1  c-2.3,3.7-3.4,8.6-3.4,14.6c0,8.1,1.4,15.1,4.2,20.9c3.2,6.8,7.8,10.1,13.6,10.1c5.2,0,9.1-2.5,11.7-7.4  C888.2,676.6,889.3,672.1,889.3,666.9z M1008,690.3h-26.9v-1.8c5.4,0,8-2.7,8-8.1v-30.9c0-7-3.3-10.5-9.8-10.5  c-5.2,0-9.8,2.5-13.8,7.5v34c0,5.4,2.7,8.1,8,8.1v1.8h-26.9v-1.8c5.4,0,8-2.7,8-8.1v-31.2c0-6.8-3.2-10.3-9.6-10.3  c-5.1,0-9.8,2.5-14,7.4v34.1c0,5.4,2.7,8.1,8,8.1v1.8h-26.9v-1.8c5.4,0,8-2.7,8-8.1v-33.8c0-3.7-2.7-5.6-8-5.6v-2.2l18.9-6.6v10.4  c2.6-3.1,5.8-5.6,9.4-7.5c3.6-1.9,7-2.9,10.3-2.9c7.1,0,11.5,3.6,13.3,10.8c4.1-3.9,7.4-6.5,9.8-8c3.2-1.9,6.9-2.8,11.1-2.8  c10,0,15,6.5,15,19.4v28.8c0,5.4,2.7,8.1,8,8.1V690.3z"/>
</svg>