<?xml version="1.0" encoding="UTF-8"?>
<!DOCTYPE svg PUBLIC "-//W3C//DTD SVG 1.1//EN" "http://www.w3.org/Graphics/SVG/1.1/DTD/svg11.dtd">
<svg xmlns="http://www.w3.org/2000/svg" version="1.1" width="1600px" height="586px" style="shape-rendering:geometricPrecision; text-rendering:geometricPrecision; image-rendering:optimizeQuality; fill-rule:evenodd; clip-rule:evenodd" xmlns:xlink="http://www.w3.org/1999/xlink">
<g><path style="opacity:0.977" fill="#185f7d" d="M 572.5,-0.5 C 601.833,-0.5 631.167,-0.5 660.5,-0.5C 660.333,42.168 660.5,84.8346 661,127.5C 682.384,106.039 708.218,97.539 738.5,102C 774.409,109.241 796.575,130.741 805,166.5C 806.647,173.07 807.647,179.736 808,186.5C 808.5,242.166 808.667,297.832 808.5,353.5C 779.167,353.5 749.833,353.5 720.5,353.5C 720.971,304.467 720.471,255.467 719,206.5C 713.907,186.864 701.407,179.364 681.5,184C 675.201,185.963 670.368,189.797 667,195.5C 664.573,199.54 662.906,203.874 662,208.5C 660.534,256.804 660.034,305.137 660.5,353.5C 631.167,353.5 601.833,353.5 572.5,353.5C 572.5,235.5 572.5,117.5 572.5,-0.5 Z"/></g>
<g><path style="opacity:0.973" fill="#185f7d" d="M 1495.5,-0.5 C 1530.17,-0.5 1564.83,-0.5 1599.5,-0.5C 1599.5,0.833333 1599.5,2.16667 1599.5,3.5C 1569.26,75.6924 1539.09,148.026 1509,220.5C 1508.5,221 1508,221.5 1507.5,222C 1473.17,222.5 1438.83,222.667 1404.5,222.5C 1434.55,148.064 1464.88,73.7303 1495.5,-0.5 Z"/></g>
<g><path style="opacity:0.976" fill="#185f7d" d="M 379.5,101.5 C 403.063,98.7789 425.063,103.279 445.5,115C 450.923,118.419 455.756,122.585 460,127.5C 460.5,120.508 460.666,113.508 460.5,106.5C 488.833,106.5 517.167,106.5 545.5,106.5C 545.5,188.833 545.5,271.167 545.5,353.5C 517.167,353.5 488.833,353.5 460.5,353.5C 460.666,346.492 460.5,339.492 460,332.5C 445.608,348.112 427.775,356.945 406.5,359C 358.128,361.567 321.295,342.401 296,301.5C 272.162,255.785 271.495,209.785 294,163.5C 313.139,129.852 341.639,109.186 379.5,101.5 Z M 401.5,181.5 C 437.418,178.608 457.751,194.941 462.5,230.5C 460.745,254.737 448.412,270.57 425.5,278C 394.054,283.203 373.554,270.703 364,240.5C 360.887,210.694 373.387,191.027 401.5,181.5 Z"/></g>
<g><path style="opacity:0.977" fill="#185f7d" d="M 938.5,101.5 C 985.089,96.9682 1024.59,111.301 1057,144.5C 1089.61,186.394 1096.61,232.394 1078,282.5C 1056.42,327.712 1020.58,353.212 970.5,359C 913.515,363.258 870.015,341.425 840,293.5C 820.996,254.769 819.663,215.436 836,175.5C 857.172,132.831 891.339,108.164 938.5,101.5 Z M 952.5,181.5 C 983.839,182.673 1001.17,198.839 1004.5,230C 1002.69,256.347 989.028,272.347 963.5,278C 941.673,280.336 925.173,272.17 914,253.5C 903.309,227.764 908.809,206.264 930.5,189C 937.459,185.001 944.793,182.501 952.5,181.5 Z"/></g>
<g><path style="opacity:0.977" fill="#185f7d" d="M 1214.5,101.5 C 1262.36,96.5349 1302.52,111.535 1335,146.5C 1364.96,186.332 1371.96,229.999 1356,277.5C 1335.55,325.846 1299.05,353.013 1246.5,359C 1206.24,362.467 1170.91,351.134 1140.5,325C 1107.73,291.681 1095.23,251.848 1103,205.5C 1117.2,146.136 1154.36,111.469 1214.5,101.5 Z M 1228.5,181.5 C 1257.4,181.906 1274.57,196.239 1280,224.5C 1282.02,244.964 1274.52,260.797 1257.5,272C 1235.31,282.942 1215.14,280.108 1197,263.5C 1181.27,242.621 1180.61,221.288 1195,199.5C 1203.91,189.13 1215.08,183.13 1228.5,181.5 Z"/></g>
<g><path style="opacity:0.972" fill="#185f7d" d="M -0.5,106.5 C 30.8351,106.333 62.1684,106.5 93.5,107C 112.135,153.772 130.635,200.606 149,247.5C 168.024,200.763 186.858,153.93 205.5,107C 236.645,106.009 267.645,106.342 298.5,108C 251.809,219.735 205.309,331.569 159,443.5C 127.907,444.496 96.7401,444.829 65.5,444.5C 77.4347,414.369 89.7681,384.369 102.5,354.5C 68.7278,273.16 34.3945,192.16 -0.5,111.5C -0.5,109.833 -0.5,108.167 -0.5,106.5 Z"/></g>
<g><path style="opacity:0.968" fill="#185f7d" d="M 1425.5,241.5 C 1458.03,240.495 1478.86,255.495 1488,286.5C 1492.46,318.081 1480.3,340.581 1451.5,354C 1422.22,362.908 1398.72,355.075 1381,330.5C 1366.42,299.053 1372.59,272.553 1399.5,251C 1407.76,246.308 1416.42,243.141 1425.5,241.5 Z"/></g>

<g><path style="opacity:0.934" fill="#093451" d="M 713.5,373.5 C 737.65,372.816 749.15,384.482 748,408.5C 741.714,426.395 729.214,433.562 710.5,430C 692.931,422.693 686.764,409.86 692,391.5C 696.363,381.956 703.53,375.956 713.5,373.5 Z"/></g>
<g><path style="opacity:0.954" fill="#093451" d="M 643.5,374.5 C 655.78,373.368 667.614,375.034 679,379.5C 679.5,393.829 679.667,408.163 679.5,422.5C 674.298,420.993 668.964,419.993 663.5,419.5C 649.037,420.3 642.371,427.967 643.5,442.5C 654.833,442.5 666.167,442.5 677.5,442.5C 677.5,456.5 677.5,470.5 677.5,484.5C 666.167,484.5 654.833,484.5 643.5,484.5C 643.5,517.167 643.5,549.833 643.5,582.5C 625.833,582.5 608.167,582.5 590.5,582.5C 590.5,549.833 590.5,517.167 590.5,484.5C 584.5,484.5 578.5,484.5 572.5,484.5C 572.5,470.5 572.5,456.5 572.5,442.5C 578.5,442.5 584.5,442.5 590.5,442.5C 589.994,425.853 594.161,410.52 603,396.5C 613.795,384.022 627.295,376.689 643.5,374.5 Z"/></g>
<g><path style="opacity:0.954" fill="#093451" d="M 844.5,438.5 C 879.252,436.097 898.752,452.097 903,486.5C 903.5,518.498 903.667,550.498 903.5,582.5C 885.833,582.5 868.167,582.5 850.5,582.5C 850.667,554.831 850.5,527.165 850,499.5C 845.047,485.887 836.214,482.72 823.5,490C 820.731,493.372 818.898,497.205 818,501.5C 817.5,528.498 817.333,555.498 817.5,582.5C 799.833,582.5 782.167,582.5 764.5,582.5C 764.5,535.833 764.5,489.167 764.5,442.5C 782.167,442.5 799.833,442.5 817.5,442.5C 817.334,446.514 817.501,450.514 818,454.5C 825.129,446.192 833.963,440.859 844.5,438.5 Z"/></g>
<g><path style="opacity:0.962" fill="#093451" d="M 994.5,585.5 C 985.833,585.5 977.167,585.5 968.5,585.5C 938.018,576.639 920.518,556.305 916,524.5C 911.956,494.274 921.456,469.441 944.5,450C 965.716,436.259 987.716,434.926 1010.5,446C 1013.96,448.463 1017.13,451.296 1020,454.5C 1020.5,450.514 1020.67,446.514 1020.5,442.5C 1037.83,442.5 1055.17,442.5 1072.5,442.5C 1072.5,489.167 1072.5,535.833 1072.5,582.5C 1055.17,582.5 1037.83,582.5 1020.5,582.5C 1020.67,578.486 1020.5,574.486 1020,570.5C 1012.73,577.715 1004.23,582.715 994.5,585.5 Z M 988.5,485.5 C 1008.09,484.092 1019.43,493.092 1022.5,512.5C 1020.35,528.985 1011.02,537.985 994.5,539.5C 975.934,537.437 966.767,527.103 967,508.5C 969.651,496.48 976.817,488.814 988.5,485.5 Z"/></g>
<g><path style="opacity:0.955" fill="#093451" d="M 1171.5,438.5 C 1202.81,435.386 1221.98,449.053 1229,479.5C 1230.39,513.814 1230.89,548.148 1230.5,582.5C 1212.83,582.5 1195.17,582.5 1177.5,582.5C 1177.67,555.498 1177.5,528.498 1177,501.5C 1173.69,487.053 1165.19,482.886 1151.5,489C 1148.19,491.778 1146.03,495.278 1145,499.5C 1144.5,527.165 1144.33,554.831 1144.5,582.5C 1126.83,582.5 1109.17,582.5 1091.5,582.5C 1091.5,535.833 1091.5,489.167 1091.5,442.5C 1109.17,442.5 1126.83,442.5 1144.5,442.5C 1144.33,446.514 1144.5,450.514 1145,454.5C 1152.14,446.187 1160.97,440.854 1171.5,438.5 Z"/></g>
<g><path style="opacity:0.954" fill="#093451" d="M 1331.5,585.5 C 1321.5,585.5 1311.5,585.5 1301.5,585.5C 1257.2,573.656 1237.7,544.656 1243,498.5C 1252.52,459.639 1277.35,439.639 1317.5,438.5C 1329.01,438.403 1340.01,440.736 1350.5,445.5C 1351.83,461.5 1351.83,477.5 1350.5,493.5C 1335.39,483.653 1320.06,483.153 1304.5,492C 1294.73,502.168 1292.9,513.668 1299,526.5C 1308.42,537.752 1320.26,541.586 1334.5,538C 1340.23,536.303 1345.56,533.803 1350.5,530.5C 1351.83,546.5 1351.83,562.5 1350.5,578.5C 1344.27,581.461 1337.94,583.794 1331.5,585.5 Z"/></g>
<g><path style="opacity:0.959" fill="#093451" d="M 1450.5,585.5 C 1439.5,585.5 1428.5,585.5 1417.5,585.5C 1379.45,576.593 1359.79,552.427 1358.5,513C 1360.59,472.126 1381.59,447.459 1421.5,439C 1448.63,435.485 1471.46,443.652 1490,463.5C 1503.09,482.067 1508.25,502.734 1505.5,525.5C 1473.83,525.5 1442.17,525.5 1410.5,525.5C 1411.34,535.002 1416.34,541.168 1425.5,544C 1438.27,547.299 1448.77,543.799 1457,533.5C 1471.33,539.167 1485.67,544.833 1500,550.5C 1500.67,551.5 1500.67,552.5 1500,553.5C 1488.15,571.343 1471.65,582.009 1450.5,585.5 Z M 1426.5,478.5 C 1436.74,476.844 1445.24,479.844 1452,487.5C 1453.71,489.909 1454.54,492.575 1454.5,495.5C 1439.83,495.5 1425.17,495.5 1410.5,495.5C 1412.42,486.579 1417.76,480.912 1426.5,478.5 Z"/></g>
<g><path style="opacity:0.967" fill="#093451" d="M 693.5,442.5 C 710.833,442.5 728.167,442.5 745.5,442.5C 745.5,489.167 745.5,535.833 745.5,582.5C 728.167,582.5 710.833,582.5 693.5,582.5C 693.5,535.833 693.5,489.167 693.5,442.5 Z"/></g>
</svg>
