<?xml version="1.0" standalone="no"?>
<!DOCTYPE svg PUBLIC "-//W3C//DTD SVG 20010904//EN"
 "http://www.w3.org/TR/2001/REC-SVG-20010904/DTD/svg10.dtd">
<svg version="1.0" xmlns="http://www.w3.org/2000/svg"
 width="512.000000pt" height="512.000000pt" viewBox="0 0 512.000000 512.000000"
 preserveAspectRatio="xMidYMid meet">
<metadata>
Created by potrace 1.14, written by Peter Selinger 2001-2017
</metadata>
<g transform="translate(0.000000,512.000000) scale(0.100000,-0.100000)"
fill="#000000" stroke="none">
<path d="M1690 4456 c-88 -31 -140 -62 -200 -119 -70 -67 -90 -102 -172 -300
-39 -94 -88 -215 -110 -267 -22 -52 -42 -105 -45 -117 -7 -29 -18 -29 -128 2
-161 46 -234 43 -288 -11 -46 -46 -59 -88 -60 -195 l0 -98 -76 -52 c-89 -62
-250 -219 -312 -304 -156 -213 -246 -429 -284 -683 -14 -100 -12 -338 4 -437
72 -427 324 -800 691 -1023 134 -81 343 -159 502 -188 101 -18 343 -24 443
-11 79 10 215 42 290 68 63 22 199 82 225 99 8 5 31 18 51 29 180 98 426 353
529 548 16 32 34 65 39 73 5 8 22 47 37 85 16 39 31 72 35 75 6 4 1342 5 1359
1 3 0 5 -74 6 -164 1 -143 3 -167 22 -209 26 -55 87 -110 141 -127 51 -15 384
-16 444 0 59 14 119 66 148 127 l23 47 0 600 c-1 558 -4 687 -20 790 -13 89
-56 250 -89 337 -19 51 -33 93 -31 95 1 2 22 6 46 9 66 9 104 29 147 78 51 57
60 91 62 220 2 125 -15 176 -75 222 -54 42 -119 41 -269 -1 l-117 -33 -23 52
c-12 28 -66 159 -120 291 -54 132 -114 264 -133 293 -38 59 -122 131 -191 167
-111 56 -53 53 -1293 53 l-1143 0 -65 -22z m2298 -194 c60 -32 117 -86 138
-130 9 -20 54 -127 99 -237 45 -110 124 -301 175 -425 51 -124 94 -241 95
-260 4 -46 -18 -86 -58 -106 -29 -16 -113 -17 -952 -18 l-920 -1 -50 51 c-234
239 -552 394 -880 429 -27 3 -78 7 -113 9 -34 2 -64 5 -67 7 -3 4 133 345 170
426 8 17 15 34 15 37 0 3 12 31 26 61 27 60 57 96 113 135 74 51 34 49 1136
47 l1030 -2 43 -23z m-2368 -1136 c377 -53 708 -336 826 -705 29 -90 33 -107
41 -186 27 -259 -30 -495 -170 -706 -35 -53 -153 -181 -207 -224 -187 -150
-424 -228 -670 -220 -120 4 -138 6 -233 30 -331 83 -606 343 -716 678 -37 109
-50 211 -46 342 5 148 9 175 41 278 62 196 183 372 339 497 52 41 181 124 195
125 3 0 11 4 18 8 13 9 144 55 177 63 112 27 290 36 405 20z m2838 -535 c23
-1 43 -10 63 -30 l29 -29 0 -186 c0 -193 -5 -221 -43 -246 -31 -21 -706 -24
-755 -4 -52 21 -59 53 -57 254 1 201 9 225 73 236 21 3 40 6 45 7 6 2 557 0
645 -2z"/>
<path d="M1954 2724 c-46 -22 -61 -40 -294 -359 -304 -414 -312 -425 -320
-425 -4 0 -78 52 -166 116 -189 138 -228 158 -292 150 -149 -18 -219 -200
-119 -308 18 -19 48 -45 67 -58 19 -13 37 -27 40 -30 3 -3 41 -31 85 -63 44
-31 126 -90 183 -132 57 -41 117 -82 135 -92 80 -41 212 -14 275 56 13 14 54
69 92 121 38 52 174 237 301 410 128 173 243 333 256 355 37 64 26 162 -25
218 -48 53 -154 73 -218 41z"/>
</g>
</svg>
